<?xml version="1.0" encoding="UTF-8"?>
<!DOCTYPE svg PUBLIC "-//W3C//DTD SVG 1.1//EN" "http://www.w3.org/Graphics/SVG/1.1/DTD/svg11.dtd">
<svg xmlns="http://www.w3.org/2000/svg" version="1.1" width="307px" height="164px" style="shape-rendering:geometricPrecision; text-rendering:geometricPrecision; image-rendering:optimizeQuality; fill-rule:evenodd; clip-rule:evenodd" xmlns:xlink="http://www.w3.org/1999/xlink">
<g><path style="opacity:1" fill="#fefefd" d="M -0.5,-0.5 C 101.833,-0.5 204.167,-0.5 306.5,-0.5C 306.5,54.1667 306.5,108.833 306.5,163.5C 297.833,163.5 289.167,163.5 280.5,163.5C 281.234,162.292 281.567,160.959 281.5,159.5C 279.167,159.5 276.833,159.5 274.5,159.5C 274.433,160.959 274.766,162.292 275.5,163.5C 270.833,163.5 266.167,163.5 261.5,163.5C 264.106,162.15 264.106,160.65 261.5,159C 253.833,158.333 246.167,158.333 238.5,159C 237.272,160.49 237.272,161.99 238.5,163.5C 158.833,163.5 79.1667,163.5 -0.5,163.5C -0.5,108.833 -0.5,54.1667 -0.5,-0.5 Z"/></g>
<g><path style="opacity:1" fill="#bea036" d="M 104.5,8.5 C 106.364,9.97839 107.697,11.9784 108.5,14.5C 110.198,13.3192 111.865,13.3192 113.5,14.5C 109.734,15.7172 107.734,18.3838 107.5,22.5C 106.756,21.0095 106.09,19.5095 105.5,18C 98.7942,17.5476 98.2942,16.381 104,14.5C 104.495,12.5273 104.662,10.5273 104.5,8.5 Z"/></g>
<g><path style="opacity:1" fill="#b79719" d="M 177.5,23.5 C 176.504,23.5858 175.671,23.2524 175,22.5C 174.833,24.1667 174.667,25.8333 174.5,27.5C 174.556,29.6397 175.223,31.3064 176.5,32.5C 175.828,33.2674 174.995,33.9341 174,34.5C 173.333,29.8333 173.333,25.1667 174,20.5C 175.518,21.1634 176.685,22.1634 177.5,23.5 Z"/></g>
<g><path style="opacity:1" fill="#f6eedd" d="M 177.5,23.5 C 177.973,24.9063 178.973,25.573 180.5,25.5C 180.973,26.9063 181.973,27.573 183.5,27.5C 183.167,28.1667 182.833,28.8333 182.5,29.5C 180.819,31.0075 178.819,32.0075 176.5,32.5C 175.223,31.3064 174.556,29.6397 174.5,27.5C 174.667,25.8333 174.833,24.1667 175,22.5C 175.671,23.2524 176.504,23.5858 177.5,23.5 Z"/></g>
<g><path style="opacity:1" fill="#c4a94c" d="M 177.5,23.5 C 179.027,23.427 180.027,24.0937 180.5,25.5C 178.973,25.573 177.973,24.9063 177.5,23.5 Z"/></g>
<g><path style="opacity:1" fill="#bc9d2e" d="M 194.5,23.5 C 200.235,22.8213 201.902,25.1546 199.5,30.5C 195.624,32.4463 193.291,31.2796 192.5,27C 192.978,25.6974 193.645,24.5307 194.5,23.5 Z"/></g>
<g><path style="opacity:1" fill="#c2a646" d="M 180.5,25.5 C 182.027,25.427 183.027,26.0937 183.5,27.5C 181.973,27.573 180.973,26.9063 180.5,25.5 Z"/></g>
<g><path style="opacity:1" fill="#faf8f1" d="M 195.5,24.5 C 199.161,24.3501 200.161,25.8501 198.5,29C 197.207,29.49 195.873,29.6567 194.5,29.5C 194.366,27.7085 194.699,26.0418 195.5,24.5 Z"/></g>
<g><path style="opacity:1" fill="#ceb66b" d="M 183.5,27.5 C 184.376,27.3691 185.043,27.7025 185.5,28.5C 184.675,29.3857 183.675,29.719 182.5,29.5C 182.833,28.8333 183.167,28.1667 183.5,27.5 Z"/></g>
<g><path style="opacity:1" fill="#bc9d2e" d="M 130.5,29.5 C 136.951,29.0924 138.618,31.5924 135.5,37C 129.593,37.7465 127.927,35.2465 130.5,29.5 Z"/></g>
<g><path style="opacity:1" fill="#f4efdf" d="M 131.5,30.5 C 135.35,30.7007 136.35,32.5341 134.5,36C 130.537,36.1177 129.537,34.2843 131.5,30.5 Z"/></g>
<g><path style="opacity:1" fill="#c1a33f" d="M 190.5,73.5 C 187.713,74.4767 184.713,74.81 181.5,74.5C 177.41,52.776 164.41,43.9427 142.5,48C 131.458,53.7051 125.125,62.7051 123.5,75C 119.911,75.2069 116.411,75.7069 113,76.5C 112.334,83.4929 111.834,90.4929 111.5,97.5C 113.103,97.3118 114.437,97.8118 115.5,99C 113.559,99.7429 111.726,99.5762 110,98.5C 109.71,90.7693 110.377,83.1026 112,75.5C 112.5,75 113,74.5 113.5,74C 116.817,73.5017 120.15,73.335 123.5,73.5C 126.334,53.1673 138,43.6673 158.5,45C 172.693,49.3489 180.36,58.8489 181.5,73.5C 184.5,73.5 187.5,73.5 190.5,73.5 Z"/></g>
<g><path style="opacity:1" fill="#ba9a22" d="M 60.5,49.5 C 62.3079,50.9179 62.9746,52.9179 62.5,55.5C 70.5,56.1667 70.5,56.8333 62.5,57.5C 61.8333,65.5 61.1667,65.5 60.5,57.5C 52.5,56.8333 52.5,56.1667 60.5,55.5C 60.5,53.5 60.5,51.5 60.5,49.5 Z"/></g>
<g><path style="opacity:1" fill="#c1a543" d="M 94.5,63.5 C 93.3064,62.2227 91.6397,61.5561 89.5,61.5C 87.3603,61.5561 85.6936,62.2227 84.5,63.5C 83.5222,63.189 82.8555,62.5223 82.5,61.5C 87.1313,60.3384 91.798,60.1717 96.5,61C 95.9341,61.9947 95.2674,62.828 94.5,63.5 Z"/></g>
<g><path style="opacity:1" fill="#f6efdf" d="M 94.5,63.5 C 94.3404,65.153 93.6737,66.4863 92.5,67.5C 91.6851,68.4293 90.8518,69.4293 90,70.5C 89.6174,69.944 89.1174,69.6107 88.5,69.5C 88.573,67.9731 87.9063,66.9731 86.5,66.5C 86.573,64.9731 85.9063,63.9731 84.5,63.5C 85.6936,62.2227 87.3603,61.5561 89.5,61.5C 91.6397,61.5561 93.3064,62.2227 94.5,63.5 Z"/></g>
<g><path style="opacity:1" fill="#c6aa51" d="M 84.5,63.5 C 85.9063,63.9731 86.573,64.9731 86.5,66.5C 85.0937,66.0269 84.427,65.0269 84.5,63.5 Z"/></g>
<g><path style="opacity:1" fill="#c1a543" d="M 86.5,66.5 C 87.9063,66.9731 88.573,67.9731 88.5,69.5C 87.0937,69.0269 86.427,68.0269 86.5,66.5 Z"/></g>
<g><path style="opacity:1" fill="#c4a84c" d="M 92.5,67.5 C 92.4959,69.8421 91.6625,71.8421 90,73.5C 89.2086,72.255 88.7086,70.9217 88.5,69.5C 89.1174,69.6107 89.6174,69.944 90,70.5C 90.8518,69.4293 91.6851,68.4293 92.5,67.5 Z"/></g>
<g><path style="opacity:1" fill="#bea036" d="M 234.5,64.5 C 235.478,64.811 236.145,65.4777 236.5,66.5C 235.691,68.0709 235.357,69.7376 235.5,71.5C 237.308,71.4914 238.975,71.9914 240.5,73C 239.975,73.6924 239.308,74.1924 238.5,74.5C 236.929,73.6906 235.262,73.3573 233.5,73.5C 233.509,75.3084 233.009,76.9751 232,78.5C 231.308,77.9747 230.808,77.3081 230.5,76.5C 231.309,74.9291 231.643,73.2624 231.5,71.5C 229.516,71.6168 227.85,70.9501 226.5,69.5C 228.413,68.9488 230.413,68.7821 232.5,69C 233.267,67.5295 233.933,66.0295 234.5,64.5 Z"/></g>
<g><path style="opacity:1" fill="#c2a646" d="M 146.5,55.5 C 156.625,54.0409 165.125,57.0409 172,64.5C 173.914,67.2975 174.914,70.2975 175,73.5C 174.5,74 174,74.5 173.5,75C 159.5,75.6667 145.5,75.6667 131.5,75C 130.426,74.2613 129.759,73.2613 129.5,72C 132.431,63.5677 138.097,58.0677 146.5,55.5 Z"/></g>
<g><path style="opacity:1" fill="#fdfdfb" d="M 148.5,56.5 C 158.488,55.7456 166.321,59.4123 172,67.5C 173.128,69.3453 173.628,71.3453 173.5,73.5C 159.5,73.5 145.5,73.5 131.5,73.5C 132.362,67.6191 135.362,63.1191 140.5,60C 143.309,58.9066 145.976,57.7399 148.5,56.5 Z"/></g>
<g><path style="opacity:1" fill="#cfba7a" d="M 190.5,73.5 C 192.027,73.427 193.027,74.0937 193.5,75.5C 192.833,75.5 192.5,75.8333 192.5,76.5C 188.727,75.8969 185.061,75.2302 181.5,74.5C 184.713,74.81 187.713,74.4767 190.5,73.5 Z"/></g>
<g><path style="opacity:1" fill="#bd9f31" d="M 193.5,75.5 C 194.784,87.4742 195.784,99.4742 196.5,111.5C 196.784,113.415 196.451,115.081 195.5,116.5C 194.296,103.184 193.296,89.8506 192.5,76.5C 192.5,75.8333 192.833,75.5 193.5,75.5 Z"/></g>
<g><path style="opacity:1" fill="#bd9f34" d="M 44.5,81.5 C 50.0284,80.0693 53.3617,82.0693 54.5,87.5C 53.3493,93.0913 50.016,94.9246 44.5,93C 40.5808,89.1727 40.5808,85.3393 44.5,81.5 Z"/></g>
<g><path style="opacity:1" fill="#faf7f0" d="M 46.5,82.5 C 51.9885,82.504 53.8219,85.1707 52,90.5C 45.4794,93.9945 42.8127,91.9945 44,84.5C 44.9947,83.9341 45.828,83.2674 46.5,82.5 Z"/></g>
<g><path style="opacity:1" fill="#c5a94d" d="M 105.5,98.5 C 106.239,98.369 106.906,98.5357 107.5,99C 105.996,100.788 104.329,101.288 102.5,100.5C 103.602,99.8243 104.602,99.1577 105.5,98.5 Z"/></g>
<g><path style="opacity:1" fill="#ba9b28" d="M 118.5,101.5 C 120.496,100.312 121.329,100.979 121,103.5C 120.292,102.619 119.458,101.953 118.5,101.5 Z"/></g>
<g><path style="opacity:1" fill="#bc9d2e" d="M 99.5,102.5 C 100.559,104.07 100.059,105.403 98,106.5C 97.7003,104.934 98.2003,103.601 99.5,102.5 Z"/></g>
<g><path style="opacity:1" fill="#bfa137" d="M 123.5,105.5 C 125.026,106.105 126.026,107.271 126.5,109C 124.522,108.967 123.522,107.8 123.5,105.5 Z"/></g>
<g><path style="opacity:1" fill="#bfa23a" d="M 108.5,107.5 C 111.044,107.104 113.211,107.771 115,109.5C 115.667,112.5 115.667,115.5 115,118.5C 111.852,122.68 109.186,122.347 107,117.5C 106.153,113.928 106.653,110.594 108.5,107.5 Z"/></g>
<g><path style="opacity:1" fill="#fdfcf9" d="M 109.5,108.5 C 110.822,108.33 111.989,108.663 113,109.5C 113.498,112.817 113.665,116.15 113.5,119.5C 111.856,119.714 110.356,119.38 109,118.5C 108.253,115.076 108.42,111.743 109.5,108.5 Z"/></g>
<g><path style="opacity:1" fill="#bea036" d="M 138.5,114.5 C 142.161,114.35 143.161,115.85 141.5,119C 137.707,119.487 136.707,117.987 138.5,114.5 Z"/></g>
<g><path style="opacity:1" fill="#bea036" d="M 167.5,114.5 C 171.161,114.35 172.161,115.85 170.5,119C 166.707,119.487 165.707,117.987 167.5,114.5 Z"/></g>
<g><path style="opacity:1" fill="#be9f3a" d="M 125.5,113.5 C 127.97,114.36 128.137,115.694 126,117.5C 125.51,116.207 125.343,114.873 125.5,113.5 Z"/></g>
<g><path style="opacity:1" fill="#d2bd7b" d="M 196.5,111.5 C 197.461,113.265 197.795,115.265 197.5,117.5C 196.549,118.919 196.216,120.585 196.5,122.5C 195.539,120.735 195.205,118.735 195.5,116.5C 196.451,115.081 196.784,113.415 196.5,111.5 Z"/></g>
<g><path style="opacity:1" fill="#bea138" d="M 34.5,119.5 C 51.5033,119.333 68.5033,119.5 85.5,120C 86.8602,121.938 86.5268,123.604 84.5,125C 68.1667,125.667 51.8333,125.667 35.5,125C 34.5939,123.301 34.2606,121.467 34.5,119.5 Z"/></g>
<g><path style="opacity:1" fill="#c1a442" d="M 96.5,118.5 C 98.2726,119.314 98.7726,120.648 98,122.5C 96.8118,121.437 96.3118,120.103 96.5,118.5 Z"/></g>
<g><path style="opacity:1" fill="#c2a544" d="M 0.5,120.5 C 3.16667,120.5 5.83333,120.5 8.5,120.5C 8.5,122.167 8.5,123.833 8.5,125.5C 5.83333,125.5 3.16667,125.5 0.5,125.5C 0.5,123.833 0.5,122.167 0.5,120.5 Z"/></g>
<g><path style="opacity:1" fill="#c0a23a" d="M 19.5,119.5 C 24.5867,119.284 25.5867,121.118 22.5,125C 18.5369,125.118 17.5369,123.284 19.5,119.5 Z"/></g>
<g><path style="opacity:1" fill="#bb9c28" d="M 220.5,120.5 C 237.5,120.5 254.5,120.5 271.5,120.5C 271.5,122.167 271.5,123.833 271.5,125.5C 254.497,125.667 237.497,125.5 220.5,125C 219.272,123.51 219.272,122.01 220.5,120.5 Z"/></g>
<g><path style="opacity:1" fill="#bd9f30" d="M 282.5,120.5 C 284.167,120.5 285.833,120.5 287.5,120.5C 287.985,125.159 286.152,126.492 282,124.5C 281.421,123.072 281.588,121.738 282.5,120.5 Z"/></g>
<g><path style="opacity:1" fill="#ba9b25" d="M 297.5,121.5 C 300.167,121.5 302.833,121.5 305.5,121.5C 305.5,122.833 305.5,124.167 305.5,125.5C 302.833,125.5 300.167,125.5 297.5,125.5C 297.5,124.167 297.5,122.833 297.5,121.5 Z"/></g>
<g><path style="opacity:1" fill="#bb9d2c" d="M 123.5,120.5 C 124.867,122.093 124.534,123.426 122.5,124.5C 122.167,124.333 121.833,124.167 121.5,124C 122.823,123.184 123.489,122.017 123.5,120.5 Z"/></g>
<g><path style="opacity:1" fill="#c2a545" d="M 100.5,124.5 C 102.196,124.685 103.529,125.519 104.5,127C 102.386,127.442 101.052,126.609 100.5,124.5 Z"/></g>
<g><path style="opacity:1" fill="#b9991e" d="M 117.5,126.5 C 119.379,126.393 119.712,126.893 118.5,128C 115.125,128.632 114.791,128.132 117.5,126.5 Z"/></g>
<g><path style="opacity:1" fill="#c5aa50" d="M 197.5,117.5 C 197.552,121.198 197.886,124.865 198.5,128.5C 197.662,128.842 197.328,129.508 197.5,130.5C 196.527,128.052 196.194,125.385 196.5,122.5C 196.216,120.585 196.549,118.919 197.5,117.5 Z"/></g>
<g><path style="opacity:1" fill="#bc9d2d" d="M 149.5,127.5 C 154.742,127.023 159.742,127.856 164.5,130C 167.308,132.214 166.975,133.714 163.5,134.5C 158.793,131.237 153.959,130.904 149,133.5C 147.5,133.333 146.667,132.5 146.5,131C 147.071,129.401 148.071,128.234 149.5,127.5 Z"/></g>
<g><path style="opacity:1" fill="#bd9f33" d="M 33.5,134.5 C 40.3694,134.538 42.8694,137.871 41,144.5C 37.3333,148.5 33.6667,148.5 30,144.5C 28.5812,140.082 29.7478,136.749 33.5,134.5 Z"/></g>
<g><path style="opacity:1" fill="#faf8f2" d="M 32.5,136.5 C 37.0832,135.343 39.7499,137.01 40.5,141.5C 39.1484,145.254 36.4817,146.421 32.5,145C 30.0468,142.251 30.0468,139.417 32.5,136.5 Z"/></g>
<g><path style="opacity:1" fill="#bd9f32" d="M 61.5,137.5 C 63.9201,137.292 66.2534,137.626 68.5,138.5C 69.5827,139.365 69.7494,140.365 69,141.5C 66.5991,142.602 64.0991,142.769 61.5,142C 60.2721,140.51 60.2721,139.01 61.5,137.5 Z"/></g>
<g><path style="opacity:1" fill="#bb9d2c" d="M 77.5,137.5 C 85.5069,137.334 93.5069,137.5 101.5,138C 102.38,139.356 102.714,140.856 102.5,142.5C 93.8333,142.5 85.1667,142.5 76.5,142.5C 76.366,140.708 76.6993,139.042 77.5,137.5 Z"/></g>
<g><path style="opacity:1" fill="#bc9e2e" d="M 203.5,138.5 C 212.167,138.5 220.833,138.5 229.5,138.5C 229.714,140.144 229.38,141.644 228.5,143C 220.5,143.667 212.5,143.667 204.5,143C 203.62,141.644 203.286,140.144 203.5,138.5 Z"/></g>
<g><path style="opacity:1" fill="#bda034" d="M 237.5,138.5 C 239.857,138.337 242.19,138.503 244.5,139C 245.517,140.049 245.684,141.216 245,142.5C 242.599,143.602 240.099,143.769 237.5,143C 236.272,141.51 236.272,140.01 237.5,138.5 Z"/></g>
<g><path style="opacity:1" fill="#b8971b" d="M 197.5,130.5 C 197.328,129.508 197.662,128.842 198.5,128.5C 199.313,136.138 199.646,143.804 199.5,151.5C 168.167,151.5 136.833,151.5 105.5,151.5C 105.523,143.817 105.857,136.15 106.5,128.5C 108.199,128.34 109.866,128.506 111.5,129C 109.939,129.318 108.772,130.151 108,131.5C 107.654,137.857 107.154,144.19 106.5,150.5C 137.167,150.5 167.833,150.5 198.5,150.5C 198.167,143.833 197.833,137.167 197.5,130.5 Z"/></g>
<g><path style="opacity:1" fill="#bb9d2b" d="M 24.5,158.5 C 26.5273,158.338 28.5273,158.505 30.5,159C 31.8333,160 31.8333,161 30.5,162C 28.5273,162.495 26.5273,162.662 24.5,162.5C 24.5,161.167 24.5,159.833 24.5,158.5 Z"/></g>
<g><path style="opacity:1" fill="#bb9c28" d="M 43.5,158.5 C 51.8333,158.5 60.1667,158.5 68.5,158.5C 68.5,159.833 68.5,161.167 68.5,162.5C 60.16,162.666 51.8267,162.5 43.5,162C 42.3157,160.855 42.3157,159.688 43.5,158.5 Z"/></g>
<g><path style="opacity:1" fill="#c0a33d" d="M 261.5,163.5 C 253.833,163.5 246.167,163.5 238.5,163.5C 237.272,161.99 237.272,160.49 238.5,159C 246.167,158.333 253.833,158.333 261.5,159C 264.106,160.65 264.106,162.15 261.5,163.5 Z"/></g>
<g><path style="opacity:1" fill="#bda034" d="M 280.5,163.5 C 278.833,163.5 277.167,163.5 275.5,163.5C 274.766,162.292 274.433,160.959 274.5,159.5C 276.833,159.5 279.167,159.5 281.5,159.5C 281.567,160.959 281.234,162.292 280.5,163.5 Z"/></g>
</svg>
