<svg height="48" viewBox="0 0 48 48" width="48" xmlns="http://www.w3.org/2000/svg" xmlns:xlink="http://www.w3.org/1999/xlink"><linearGradient id="a" x1="30.5988%" x2="65.823932%" y1="66.088669%" y2="39.002436%"><stop offset="0" stop-opacity=".25"/><stop offset="1" stop-opacity=".03"/></linearGradient><g fill="none" fill-rule="evenodd"><path d="m0 0h48v48h-48z"/><path d="m30.6230884 14.6554632c1.2322532 0 2.4127331.1412678 3.7613318.598518 2.0221958.6856373 3.7930261 1.9437142 5.1439003 3.8920905l.7045121 1.0161232-.9760057.7591155-.4728482.3254445-.2614688.1901701c-.419507.3213916-.8274297.6953769-1.2084766 1.1320735-1.1399591 1.3064435-1.8132672 2.8989003-1.8132672 4.8470001 0 3.7504141 2.44537 6.1238614 4.3876359 6.7712834l1.0938809.3646269-.2261321 1.1306602c-.0346687.1733435-.0933751.3893506-.173855.639233l-.1367671.3991316-.1677293.4433533c-.121763.3088448-.2630354.6427765-.4215532.993007l-.2504276.5364713-.2745976.5543282c-.4291747.8415893-.9341919 1.7212001-1.4892618 2.5387285l-.3410601.4881944c-2.4005447 3.4098265-4.1706942 4.9425169-6.8778107 4.9425169-1.2617402 0-2.1046809-.2332855-3.3900588-.798852l-.5115206-.22346c-.9825177-.4159599-1.5881303-.5593618-2.5781807-.5593618-1.066416 0-1.7650435.1890578-2.9841421.7109462l-.3451807.1481165-.4972647.2055813c-.9859891.3894373-1.7593475.5680515-2.7297052.5680515-2.109008 0-3.5197956-.8748249-5.4295462-3.2088964l-.4173057-.5227065-.4351979-.5686553-.4557077-.6158818-.4788353-.6643863c-2.61374474-3.7173258-4.3704428-9.0624925-4.3704428-13.8638562 0-7.7702328 4.9893935-13.0666659 11.2298835-13.0666659 1.311013 0 2.4204939.298735 4.0509419.9470437l.6192189.244991.6172202.2374707.3383642.1211615.2588228.08088.1404551.0353306.123248.0231113.1132984.0131657.1671688.0060736.1688797-.0029551.0651338-.0067792.1133197-.0222001.1495439-.0424302.3831536-.1333735 1.9874763-.7581346c1.5360935-.5671445 2.7403981-.8453988 4.0969596-.8453988zm0 2.6123127c-1.0772265 0-2.0948075.2574166-3.5477476.8180619l-1.3689651.5326936-.2971732.1062171c-.6753931.2327811-1.2176998.3542989-1.7505807.3542989-.0383882 0-.0756233-.0001499-.1118913-.0004995l-.3053235-.0098815-.1894185-.0165596-.1885316-.0273242c-.0318441-.0055838-.0640233-.0117156-.0967237-.0184453l-.2039439-.04795-.2253805-.0646867-.2557465-.0838122-.2950417-.1053266-.3432664-.1292299-1.4296887-.561403c-1.174073-.4507092-1.9560221-.6441095-2.783782-.6441095-4.7617183 0-8.61757076 4.0931356-8.61757076 10.4543531 0 4.2530316 1.58506396 9.0759614 3.89013216 12.3543293l.4277112.5936464.4018376.5439353c.0649368.0866067.1288857.1712122.1918916.2538515l.3670797.4725218c.0594141.0749147.1179753.1479332.1757286.2190907l.3371855.4048921c1.2581437 1.4686251 2.1365617 1.9898027 3.1831565 1.9898027.6658521 0 1.1926414-.1391231 2.054051-.5014126l.8588715-.3639375c1.317936-.5378906 2.279499-.7673454 3.6433702-.7673454 1.5082351 0 2.4544022.2593767 3.9107006.9020137l.488418.2129935c.8236777.3468183 1.3253898.4666665 2.0806415.4666665 1.5513666 0 2.8094913-1.0893518 4.7390286-3.8301263l.3284421-.4699439c.9623594-1.4175294 1.7601996-3.0717496 2.1868368-4.1634572l.0167992-.0460568-.1644363-.0999557c-.5213064-.3257938-1.0926217-.7466342-1.6326107-1.2401387l-.2292689-.2158855c-1.857342-1.8027144-2.9794258-4.1764956-2.9794258-7.1236578 0-2.6217788.924155-4.8075197 2.4572425-6.5645058.3016383-.3456908.6148043-.6604617.9360122-.9480878l.2958814-.2548897-.0691839-.0739815c-.7765629-.7916393-1.672282-1.3589431-2.6628202-1.7383526l-.2999817-.1082224c-1.0334846-.350409-1.9507908-.4601829-2.9225153-.4601829zm-6.7559677-16.5177759c4.6167695 0 8.3594007 3.7426312 8.3594007 8.35940076l-.0006963 4.12626484c-.3542195-.0261699-.7078449-.0373831-1.0655268-.0373831-.5286052 0-1.0357112.0398032-1.5460857.1199611l-.0000039-4.4825137c0-3.02288483-2.573059-5.47341716-5.747088-5.47341716-3.090502 0-5.6112477 2.32325399-5.7417783 5.23599169l-.0053098.23742547.0001992 4.5835296c-.4490657-.073887-.8935573-.1098148-1.361974-.1098148-.4229744 0-.8406038.0229228-1.2518816.0679983l.0013437-4.26804224c0-4.61676956 3.7426312-8.35940076 8.3594008-8.35940076z" fill="#000"/><path d="m30.6230884 17.2677759c.9717245 0 1.8890307.1097739 2.9225153.4601829l.2999817.1082224c.9905382.3794095 1.8862573.9467133 2.6628202 1.7383526l.0691839.0739815-.2958814.2548897c-.3212079.2876261-.6343739.602397-.9360122.9480878-1.5330875 1.7569861-2.4572425 3.942727-2.4572425 6.5645058 0 2.9471622 1.1220838 5.3209434 2.9794258 7.1236578l.2292689.2158855c.539989.4935045 1.1113043.9143449 1.6326107 1.2401387l.1644363.0999557-.0167992.0460568c-.4266372 1.0917076-1.2244774 2.7459278-2.1868368 4.1634572l-.3284421.4699439c-1.9295373 2.7407745-3.187662 3.8301263-4.7390286 3.8301263-.7552517 0-1.2569638-.1198482-2.0806415-.4666665l-.488418-.2129935c-1.4562984-.642637-2.4024655-.9020137-3.9107006-.9020137-1.3638712 0-2.3254342.2294548-3.6433702.7673454l-.8588715.3639375c-.8614096.3622895-1.3881989.5014126-2.054051.5014126-1.0465948 0-1.9250128-.5211776-3.1831565-1.9898027l-.3371855-.4048921c-.0577533-.0711575-.1163145-.144176-.1757286-.2190907l-.3670797-.4725218c-.0630059-.0826393-.1269548-.1672448-.1918916-.2538515l-.4018376-.5439353-.4277112-.5936464c-2.3050682-3.2783679-3.89013216-8.1012977-3.89013216-12.3543293 0-6.3612175 3.85585246-10.4543531 8.61757076-10.4543531.8277599 0 1.609709.1934003 2.783782.6441095l1.4296887.561403.3432664.1292299.2950417.1053266.2557465.0838122.2253805.0646867.2039439.04795c.0327004.0067297.0648796.0128615.0967237.0184453l.1885316.0273242.1894185.0165596.3053235.0098815c.036268.0003496.0735031.0004995.1118913.0004995.5328809 0 1.0751876-.1215178 1.7505807-.3542989l.2971732-.1062171 1.3689651-.5326936c1.4529401-.5606453 2.4705211-.8180619 3.5477476-.8180619z" fill="url(#a)" fill-rule="nonzero" opacity=".5"/></g></svg>